<svg width="248" height="42" viewBox="0 0 248 42" fill="none" xmlns="http://www.w3.org/2000/svg">
<g clip-path="url(#clip0_32_125)">
<path d="M24.4564 21.66C20.3537 24.9957 22.845 27.1006 27.1499 27.3087C30.5093 27.493 33.8807 27.0292 37.1806 26.3871C39.3747 25.9352 41.5806 25.4119 43.626 24.6211C48.472 22.7065 58.9903 17.1709 56.3206 10.7849C55.506 8.92979 53.8649 7.55628 51.9503 6.88439C50.452 6.28385 48.8347 5.90331 47.2352 5.68331C36.8298 4.32169 24.0639 7.34818 14.4731 11.4568C10.311 13.2406 6.24991 15.3098 2.43262 17.7595C4.2164 16.3444 6.1072 15.066 8.05152 13.8649C18.3202 7.58007 30.1763 3.68548 42.2704 3.38818C45.1779 3.40602 48.1866 3.61413 50.9871 4.43467C51.5163 4.53575 52.1822 4.8271 52.6936 5.00548C53.2525 5.20169 53.8412 5.45737 54.3822 5.78439C57.7476 7.65736 59.8703 12.0217 58.1341 15.7438C55.8449 20.8454 49.1855 24.2941 44.1731 26.1135C41.9671 26.8687 39.7017 27.3443 37.4125 27.7011C33.9996 28.1946 30.5212 28.5098 27.0726 28.0935C22.5834 27.6476 19.6937 24.8589 24.4564 21.66Z" fill="url(#paint0_linear_32_125)"/>
<path d="M46.7955 18.8357C51.4333 13.9125 42.3717 13.7579 39.3096 13.7936C36.729 13.8352 34.1961 14.3227 31.6869 14.9114C25.2712 16.5703 18.3026 19.0617 13.5756 23.8362C13.1594 24.2584 12.761 24.746 12.3983 25.2097C11.5005 26.613 10.7215 28.3433 11.0664 29.9903C11.6134 32.2973 13.8431 33.5162 16.0431 34.3189C23.8977 36.8757 33.6253 35.3238 41.682 33.9384C38.3404 35.0265 34.9036 35.8173 31.4312 36.3881C27.935 36.9411 24.3615 37.2681 20.8118 37.0005C15.5258 36.6854 7.51073 34.1584 9.22911 27.3503C9.72856 25.4535 10.7453 23.8006 12.095 22.4211C16.5961 17.9022 22.6907 15.5238 28.7377 13.9303C33.0545 12.8719 37.5436 12.2179 41.9793 12.8422C45.3625 13.2168 51.3679 14.9054 46.7896 18.8298L46.7955 18.8357Z" fill="white"/>
<path d="M25.2476 31.9641C37.08 31.9641 61.0718 25.1501 67.1248 14.382C69.0215 11.1296 69.3188 6.68794 66.1199 4.17876C63.7356 2.062 60.7805 0.956061 57.6113 0.200928C61.5713 0.492278 67.0534 2.59119 69.1761 6.18848C71.4653 10.535 69.1345 15.6663 66.0783 18.9722C61.0005 24.4484 53.8653 27.4571 46.861 29.5976C39.8924 31.6311 32.4957 32.969 25.2476 31.976V31.9641Z" fill="white"/>
<path d="M37.5968 9.82764C30.8898 10.779 24.3671 12.9255 18.2428 15.7855C14.2055 17.6406 10.4358 20.1319 7.34391 23.319C4.71581 26.0838 1.49311 30.4362 3.66932 34.2179C5.84554 37.6011 11.1196 38.7843 14.919 39.4384C28.0774 41.46 42.1336 38.0768 54.5665 33.7897C56.7071 33.0346 58.8298 32.2438 60.9227 31.3519C56.9092 33.5103 52.6995 35.2762 48.4184 36.8341C37.6563 40.6097 26.032 43.113 14.6039 41.4065C10.1147 40.6692 4.55527 39.367 1.9569 35.2406C-0.802017 30.5968 2.77744 25.2752 6.07148 22.0644C9.38931 18.7882 13.4088 16.3325 17.6958 14.5725C24.0163 11.9682 30.7471 10.1487 37.5968 9.83358V9.82764Z" fill="url(#paint1_linear_32_125)"/>
<path d="M31.3954 24.9301C29.1122 24.9301 27.2927 24.4604 26.4187 23.5804C25.9371 23.0928 25.7468 22.4982 25.8598 21.8442C26.2938 19.448 30.8662 16.8437 36.2652 15.9042C40.1241 15.2323 43.4478 15.6426 44.7381 16.9388C45.2197 17.4264 45.41 18.021 45.297 18.675C44.863 21.0712 40.2905 23.6755 34.8916 24.615C33.6549 24.8291 32.4776 24.9361 31.4014 24.9361L31.3954 24.9301ZM39.7614 16.1658C38.7149 16.1658 37.5614 16.2669 36.3603 16.475C31.3538 17.3431 26.8052 19.8523 26.4246 21.9512C26.3414 22.415 26.4722 22.8253 26.823 23.1761C27.9646 24.3237 31.1635 24.6745 34.7846 24.0501C39.7911 23.182 44.3397 20.6728 44.7203 18.5739C44.8035 18.1102 44.6727 17.6999 44.3219 17.3491C43.5608 16.582 41.8722 16.1658 39.7554 16.1658H39.7614Z" fill="url(#paint2_linear_32_125)"/>
<path d="M101.373 15.4107H96.0339L90.9085 20.6609V7.79395L86.3955 9.9107V33.855H90.9085V25.7328L92.7279 23.9312L97.9068 33.855H102.818L96.0339 20.7145L101.373 15.4107Z" fill="white"/>
<path d="M124.604 12.3548C123.742 11.0883 122.612 10.0716 121.209 9.30455C119.806 8.53752 118.093 8.15698 116.077 8.15698C114.062 8.15698 112.343 8.53752 110.934 9.30455C109.525 10.0716 108.395 11.0824 107.533 12.3548C106.671 13.6272 106.047 15.0305 105.648 16.5705C105.25 18.1105 105.054 19.6624 105.054 21.2261C105.054 22.7899 105.25 24.3418 105.648 25.8818C106.047 27.4218 106.671 28.825 107.533 30.0975C108.395 31.3699 109.525 32.3807 110.934 33.1477C112.343 33.9088 114.056 34.2953 116.077 34.2953C118.099 34.2953 119.812 33.9148 121.209 33.1477C122.612 32.3867 123.742 31.3699 124.604 30.0975C125.466 28.831 126.09 27.4218 126.483 25.8818C126.875 24.3418 127.072 22.7899 127.072 21.2261C127.072 19.6624 126.875 18.1105 126.483 16.5705C126.09 15.0305 125.466 13.6272 124.604 12.3548ZM110.227 18.2889C110.435 17.284 110.78 16.3505 111.255 15.4943C111.731 14.6321 112.361 13.9364 113.152 13.4072C113.943 12.8781 114.918 12.6105 116.083 12.6105C117.249 12.6105 118.212 12.8662 118.997 13.3775C119.235 13.5321 119.449 13.7045 119.657 13.8829L110.637 25.6559C110.465 25.204 110.328 24.7283 110.227 24.2348C110.019 23.224 109.912 22.2191 109.912 21.2202C109.912 20.2213 110.019 19.2937 110.227 18.2889ZM121.91 24.1337C121.696 25.1386 121.346 26.0661 120.864 26.9223C120.382 27.7786 119.746 28.4683 118.961 28.9975C118.17 29.5267 117.213 29.7883 116.083 29.7883C114.954 29.7883 113.973 29.5386 113.188 29.0332C112.896 28.8429 112.629 28.6288 112.379 28.391L121.441 16.5645C121.643 17.0759 121.803 17.611 121.922 18.1818C122.13 19.1986 122.237 20.2094 122.237 21.2202C122.237 22.1597 122.13 23.1288 121.91 24.1337Z" fill="white"/>
<path d="M151.296 19.2935C151.664 18.3184 151.849 17.3551 151.849 16.4038C151.849 15.0303 151.587 13.7519 151.064 12.5627C150.54 11.3735 149.666 10.4103 148.447 9.68487C147.229 8.95947 145.564 8.59082 143.459 8.59082H131.965V33.8551H136.639V24.294H141.764L146.545 33.8551H151.795L146.812 23.6578C147.942 23.2832 148.882 22.7065 149.625 21.9275C150.368 21.1486 150.927 20.2686 151.296 19.2935ZM146.699 18.0984C146.485 18.6276 146.117 19.0557 145.605 19.3886C145.094 19.7216 144.398 19.8821 143.518 19.8821H136.627V12.9908H143.518C144.434 12.9908 145.142 13.1632 145.647 13.5141C146.152 13.8649 146.509 14.3049 146.711 14.8341C146.913 15.3632 147.02 15.8924 147.02 16.4216C147.02 17.0103 146.913 17.5692 146.693 18.0984H146.699Z" fill="white"/>
<path d="M174.698 12.5507C173.741 11.3436 172.492 10.3804 170.952 9.66093C169.412 8.94742 167.545 8.58472 165.357 8.58472H156.843V33.849H165.215C167.522 33.849 169.466 33.4684 171.036 32.7014C172.605 31.9403 173.86 30.9355 174.799 29.6868C175.739 28.4441 176.417 27.0766 176.827 25.602C177.243 24.1214 177.451 22.6587 177.451 21.2198C177.451 19.6442 177.231 18.1042 176.791 16.6117C176.351 15.1134 175.656 13.7577 174.698 12.5507ZM172.243 24.0977C171.999 25.0668 171.607 25.9528 171.071 26.7495C170.536 27.5522 169.829 28.1944 168.949 28.682C168.069 29.1695 166.987 29.4133 165.702 29.4133H161.516V12.9907H166.101C167.242 12.9907 168.223 13.2225 169.044 13.6923C169.864 14.162 170.536 14.7923 171.065 15.589C171.595 16.3858 171.987 17.2658 172.237 18.2409C172.492 19.216 172.617 20.209 172.617 21.2198C172.617 22.1712 172.492 23.1285 172.249 24.0977H172.243Z" fill="white"/>
<path d="M187.012 23.0275H194.356V18.5859H187.012V13.0324H199.41V8.59082H182.339V33.8551H200.171V29.3778H187.012V23.0275Z" fill="white"/>
<path d="M220.001 23.4616C220.001 23.6875 220.012 23.9967 220.03 24.3713C220.048 24.7519 220.078 25.0729 220.113 25.3346C219.971 25.0313 219.792 24.6984 219.578 24.3357C219.37 23.967 219.198 23.6757 219.061 23.4616L209.102 8.59082H204.737V33.8551H209.375V18.8773C209.375 18.6216 209.369 18.3243 209.357 17.9735C209.345 17.6227 209.322 17.3016 209.286 16.9984C209.429 17.3016 209.607 17.6346 209.815 18.0092C210.023 18.3838 210.196 18.6692 210.332 18.8773L220.494 33.8551H224.662V8.59082H220.006V23.4616H220.001Z" fill="white"/>
<path d="M228.931 8.59082V13.0859H236.096V33.8551H240.769V13.0859H247.97V8.59082H228.931Z" fill="white"/>
</g>
<defs>
<linearGradient id="paint0_linear_32_125" x1="2.43262" y1="15.839" x2="58.7525" y2="15.839" gradientUnits="userSpaceOnUse">
<stop stop-color="#1DA7FD"/>
<stop offset="1" stop-color="#08F5DA"/>
</linearGradient>
<linearGradient id="paint1_linear_32_125" x1="0.969871" y1="25.8876" x2="60.9168" y2="25.8876" gradientUnits="userSpaceOnUse">
<stop stop-color="#1DA7FD"/>
<stop offset="1" stop-color="#08F5DA"/>
</linearGradient>
<linearGradient id="paint2_linear_32_125" x1="25.8241" y1="20.2626" x2="45.3208" y2="20.2626" gradientUnits="userSpaceOnUse">
<stop stop-color="#1DA7FD"/>
<stop offset="1" stop-color="#08F5DA"/>
</linearGradient>
<clipPath id="clip0_32_125">
<rect width="247" height="41.7523" fill="white" transform="translate(0.970215 0.195068)"/>
</clipPath>
</defs>
</svg>
