<svg width="200" height="29" viewBox="0 0 200 29" fill="none" xmlns="http://www.w3.org/2000/svg">
<path d="M1.11064 28.8187C0.579065 28.8948 0.0857782 28.5258 0.00969666 27.9942C-0.00323222 27.9022 -0.00323222 27.8093 0.00969666 27.7178V1.09123C-0.0609149 0.56363 0.310045 0.0787974 0.837642 0.00868306C0.928145 -0.00374856 1.02014 -0.00275403 1.11064 0.0111694C1.63277 -0.0634203 2.11611 0.299583 2.1907 0.821214C2.20363 0.910721 2.20363 1.00172 2.1907 1.09123V18.3508L12.7397 9.2951C13.0833 8.89779 13.6835 8.85452 14.0808 9.19813C14.1484 9.25681 14.2071 9.32444 14.2558 9.39903C14.6581 9.75358 14.6969 10.3672 14.3424 10.7695C14.2867 10.8331 14.2225 10.8893 14.1519 10.9361L6.51044 17.5199L14.8182 26.9495C15.2215 27.2901 15.2727 27.8928 14.9321 28.2961C14.8695 28.3702 14.7964 28.4343 14.7143 28.4865C14.3702 28.8834 13.7695 28.9266 13.3727 28.5825C13.3051 28.5243 13.2464 28.4572 13.1982 28.3826L4.82819 18.953L2.19269 21.217V27.7178C2.27325 28.2439 1.91173 28.7357 1.38563 28.8162C1.29513 28.8301 1.20313 28.8306 1.11263 28.8187" fill="white"/>
<path d="M31.289 15.1504V15.9405C31.289 16.761 30.8937 17.1663 30.1035 17.1663H29.3313C28.745 17.2449 28.206 16.8331 28.1279 16.2464C28.114 16.1449 28.115 16.042 28.1309 15.9405V15.1504C28.0543 14.5736 28.4591 14.044 29.0359 13.9674C29.1339 13.9545 29.2333 13.955 29.3313 13.9699H30.1011C30.6714 13.8849 31.203 14.2782 31.288 14.8486C31.3029 14.9485 31.3034 15.0504 31.289 15.1504Z" fill="white"/>
<path d="M37.5278 4.23792C36.1509 2.86 33.9589 2.17129 30.9525 2.17129H28.4602C25.4701 2.15587 23.2802 2.83464 21.8898 4.20759C20.4955 5.57556 19.7983 7.76204 19.7983 10.768V20.2394C19.7983 23.2434 20.4925 25.4388 21.8804 26.8247C23.2633 28.2076 25.4567 28.9003 28.4607 28.9018H30.953C33.957 28.9018 36.1489 28.2096 37.5283 26.8247C38.9077 25.4398 39.5964 23.2449 39.5949 20.2394V10.8083C39.5949 7.8043 38.9057 5.61385 37.5278 4.23792ZM37.4115 20.2394C37.4627 21.5383 37.2508 22.8341 36.7884 24.0489C36.4 24.9699 35.669 25.7038 34.7496 26.0957C33.5388 26.5586 32.2459 26.771 30.9505 26.7188H28.4602C27.1579 26.7715 25.8585 26.5596 24.6407 26.0957C23.7213 25.7038 22.9903 24.9699 22.6019 24.0489C22.1405 22.8336 21.9296 21.5383 21.9813 20.2394V10.768C21.9296 9.47263 22.1415 8.18024 22.6044 6.9689C22.9958 6.05194 23.7302 5.32494 24.6511 4.94254C25.8685 4.49202 27.1638 4.29063 28.4607 4.34981H30.953C32.2484 4.29809 33.5412 4.50992 34.7521 4.97338C35.67 5.36323 36.401 6.09421 36.7909 7.01216C37.2538 8.2235 37.4657 9.51589 37.4139 10.8113L37.4115 20.2394Z" fill="#1AAAFF"/>
<path d="M31.289 15.1504V15.9405C31.289 16.761 30.8937 17.1663 30.1035 17.1663H29.3313C28.745 17.2449 28.206 16.8331 28.1279 16.2464C28.114 16.1449 28.115 16.042 28.1309 15.9405V15.1504C28.0543 14.5736 28.4591 14.044 29.0359 13.9674C29.1339 13.9545 29.2333 13.955 29.3313 13.9699H30.1011C30.6714 13.8849 31.203 14.2782 31.288 14.8486C31.3029 14.9485 31.3034 15.0504 31.289 15.1504Z" fill="white"/>
<path d="M31.289 15.1504V15.9405C31.289 16.761 30.8937 17.1663 30.1035 17.1663H29.3313C28.745 17.2449 28.206 16.8331 28.1279 16.2464C28.114 16.1449 28.115 16.042 28.1309 15.9405V15.1504C28.0543 14.5736 28.4591 14.044 29.0359 13.9674C29.1339 13.9545 29.2333 13.955 29.3313 13.9699H30.1011C30.6714 13.8849 31.203 14.2782 31.288 14.8486C31.3029 14.9485 31.3034 15.0504 31.289 15.1504Z" fill="white"/>
<path d="M50.559 28.7769C48.8558 28.7769 47.5545 28.4134 46.6545 27.6869C45.6918 26.8366 45.1085 25.6372 45.0344 24.3553C44.9757 24.0544 45.0602 23.7436 45.2626 23.5139C45.4923 23.3001 45.8007 23.1912 46.1139 23.213C46.3999 23.1912 46.6818 23.2891 46.8931 23.4831C47.0876 23.7118 47.2074 23.9943 47.2358 24.2931C47.277 25.0002 47.6216 25.6546 48.1806 26.0892C48.9086 26.4816 49.7335 26.6586 50.5585 26.5984H57.371C58.6584 26.5984 59.5446 26.3563 60.0294 25.8714C60.5142 25.3866 60.7564 24.5005 60.7564 23.213C60.7564 21.9117 60.5142 21.0186 60.0294 20.5338C59.5446 20.049 58.6584 19.8068 57.371 19.8068H50.644C48.8444 19.8068 47.5043 19.3742 46.6246 18.5089C45.745 17.6437 45.3054 16.311 45.3059 14.5104C45.3059 12.669 45.742 11.3155 46.6142 10.4498C47.4864 9.58402 48.829 9.1514 50.642 9.15189H57.1636C60.2929 9.15189 62.0304 10.5368 62.377 13.306C62.4486 13.6049 62.367 13.9202 62.1592 14.1469C61.9314 14.3583 61.6276 14.4667 61.3178 14.4483C61.0319 14.4701 60.7499 14.3722 60.5391 14.1782C60.3451 13.9555 60.2188 13.6815 60.1756 13.3891C60.1542 12.7526 59.8449 12.1598 59.3347 11.7789C58.6659 11.4343 57.915 11.2792 57.1641 11.3314H50.644C49.4391 11.3314 48.6122 11.5532 48.1622 11.9962C47.7121 12.4393 47.4874 13.2772 47.4869 14.5094C47.4869 15.6865 47.7151 16.4995 48.1721 16.9495C48.6291 17.3995 49.4526 17.6243 50.6435 17.6248H57.373C59.284 17.6248 60.6893 18.0783 61.5893 18.9853C62.4894 19.8923 62.9394 21.3011 62.9394 23.2121C62.9394 25.1091 62.4894 26.5109 61.5893 27.4174C60.6893 28.3239 59.284 28.7774 57.373 28.7779L50.559 28.7769Z" fill="white"/>
<path d="M90.9569 9.1494C93.1862 9.1494 94.7819 9.71728 95.7446 10.8525C96.7073 11.9878 97.1882 13.8645 97.1867 16.4816V27.759C97.1867 28.3612 96.6983 28.8495 96.0962 28.8495C95.494 28.8495 95.0057 28.3612 95.0057 27.759V16.4816C95.0057 14.6531 94.6939 13.3379 94.0708 12.5353C93.4477 11.7327 92.4089 11.3309 90.9554 11.3299H89.2339C87.4199 11.3299 86.122 11.7317 85.3398 12.5353C84.5576 13.3389 84.1668 14.6541 84.1663 16.4816V27.759C84.1663 28.3612 83.678 28.8495 83.0758 28.8495C82.4736 28.8495 81.9853 28.3612 81.9853 27.759V16.4816C81.9853 14.6531 81.6735 13.3379 81.0504 12.5353C80.4273 11.7327 79.3886 11.3309 77.9351 11.3299H76.2105C74.3965 11.3299 73.0987 11.7317 72.3165 12.5353C71.5343 13.3389 71.1434 14.6541 71.1429 16.4816V27.759C71.1429 28.3612 70.6546 28.8495 70.0524 28.8495C69.4502 28.8495 68.9619 28.3612 68.9619 27.759V10.2732C68.9619 9.67103 69.4502 9.18272 70.0524 9.18272C70.6546 9.18272 71.1429 9.67103 71.1429 10.2732V11.8933C71.6561 11.0027 72.4075 10.2727 73.313 9.7854C74.312 9.32891 75.404 9.1121 76.5014 9.15189H77.9346C79.1474 9.09669 80.3532 9.35825 81.4343 9.91022C82.3791 10.4915 83.1116 11.3617 83.5228 12.3921C84.0176 11.3672 84.7963 10.5059 85.766 9.91022C86.8366 9.36123 88.0315 9.09868 89.2339 9.1494H90.9569Z" fill="white"/>
<path d="M111.022 28.8187C108.432 28.8187 106.535 28.22 105.331 27.0221C104.128 25.8242 103.525 23.9381 103.524 21.3632V16.6675C103.524 14.0504 104.127 12.1434 105.331 10.9455C106.536 9.74761 108.433 9.16283 111.022 9.19068H114.428C117.018 9.19068 118.911 9.78938 120.109 10.9873C121.306 12.1852 121.905 14.0783 121.905 16.6671V21.32C121.905 23.9092 121.307 25.8058 120.109 27.0102C118.911 28.2145 117.017 28.8172 114.428 28.8177L111.022 28.8187ZM105.705 21.3632C105.705 23.3155 106.096 24.683 106.878 25.4657C107.661 26.2483 109.042 26.6392 111.022 26.6387H114.428C116.408 26.6387 117.786 26.2479 118.561 25.4657C119.336 24.6835 119.724 23.3026 119.724 21.3219V16.6675C119.724 14.6879 119.336 13.31 118.561 12.5348C117.786 11.7595 116.408 11.3717 114.428 11.3712H111.022C109.948 11.316 108.874 11.4786 107.865 11.8496C107.112 12.1598 106.514 12.7581 106.204 13.5109C105.832 14.5204 105.663 15.593 105.706 16.6675L105.705 21.3632Z" fill="white"/>
<path d="M136.298 28.8192C133.75 28.8192 131.888 28.2309 130.711 27.0539C129.534 25.8769 128.945 24.0216 128.945 21.4875V11.3717H126.474C125.942 11.4478 125.449 11.0788 125.373 10.5472C125.36 10.4552 125.36 10.3622 125.373 10.2707C125.302 9.74314 125.673 9.25831 126.201 9.18819C126.291 9.17576 126.383 9.17676 126.474 9.19068H128.945V4.72574C128.945 4.12355 129.434 3.63524 130.036 3.63524C130.638 3.63524 131.126 4.12355 131.126 4.72574V9.19118H136.34C136.862 9.11659 137.346 9.47909 137.42 10.0007C137.433 10.0907 137.433 10.1817 137.42 10.2712C137.501 10.7973 137.139 11.2891 136.613 11.3697C136.523 11.3836 136.431 11.3841 136.34 11.3722H131.126V21.4865C131.126 23.4254 131.504 24.768 132.258 25.5144C133.012 26.2608 134.359 26.6347 136.298 26.6357C136.61 26.6054 136.921 26.7029 137.16 26.9057C137.349 27.1315 137.442 27.4224 137.42 27.7158C137.491 28.2533 137.114 28.7476 136.576 28.8192C136.484 28.8316 136.39 28.8306 136.298 28.8167" fill="white"/>
<path d="M144.273 28.8187C143.741 28.8948 143.248 28.5258 143.172 27.9942C143.159 27.9022 143.159 27.8093 143.172 27.7178V10.2712C143.173 9.66904 143.663 9.18172 144.265 9.18371C144.865 9.1852 145.351 9.67103 145.353 10.2712V13.4696C146.044 12.1146 147.136 11.0052 148.479 10.2921C149.978 9.52633 151.646 9.14791 153.328 9.19117C153.855 9.11111 154.347 9.47262 154.427 9.99923C154.44 10.0892 154.441 10.1807 154.429 10.2712C154.505 10.8033 154.136 11.2961 153.603 11.3722C153.512 11.3851 153.42 11.3851 153.328 11.3722C150.864 11.3722 148.953 11.9296 147.596 13.044C146.239 14.1583 145.491 15.7476 145.353 17.8108V27.7178C145.433 28.2439 145.072 28.7357 144.546 28.8162C144.455 28.8301 144.363 28.8306 144.273 28.8187Z" fill="white"/>
<path d="M164.94 28.8187C162.351 28.8187 160.454 28.22 159.249 27.0221C158.045 25.8242 157.442 23.9381 157.442 21.3632V16.6675C157.442 14.0504 158.045 12.1434 159.249 10.9455C160.454 9.74761 162.351 9.16283 164.94 9.19068H168.346C170.936 9.19068 172.829 9.78938 174.027 10.9873C175.225 12.1852 175.824 14.0783 175.823 16.6671V21.32C175.823 23.9092 175.225 25.8058 174.027 27.0102C172.83 28.2145 170.936 28.8172 168.346 28.8177L164.94 28.8187ZM159.623 21.3632C159.623 23.3155 160.014 24.683 160.796 25.4657C161.579 26.2483 162.96 26.6392 164.94 26.6387H168.346C170.327 26.6387 171.704 26.2479 172.48 25.4657C173.255 24.6835 173.643 23.3026 173.643 21.3219V16.6675C173.643 14.6879 173.255 13.31 172.48 12.5348C171.704 11.7595 170.327 11.3717 168.346 11.3712H164.94C163.866 11.316 162.792 11.4786 161.783 11.8496C161.03 12.1598 160.432 12.7581 160.122 13.5109C159.75 14.5204 159.581 15.593 159.624 16.6675L159.623 21.3632Z" fill="white"/>
<path d="M183.136 28.8187C182.603 28.8948 182.111 28.5248 182.035 27.9927C182.022 27.9017 182.022 27.8088 182.035 27.7178V10.2712C182.035 9.66904 182.523 9.18073 183.125 9.18073C183.728 9.18073 184.216 9.66904 184.216 10.2712V12.2633C185.531 10.214 187.913 9.18968 191.36 9.18918H192.523C195.113 9.18918 197.007 9.78789 198.204 10.9858C199.402 12.1837 200 14.0768 200 16.666V27.7153C200.002 28.3175 199.515 28.8068 198.913 28.8088C198.31 28.8102 197.821 28.3229 197.819 27.7207V27.7153V16.668C197.819 14.6879 197.428 13.31 196.646 12.5348C195.864 11.7595 194.49 11.3717 192.523 11.3717H191.36C189.214 11.3717 187.524 11.7108 186.293 12.3896C185.095 13.0151 184.308 14.2185 184.216 15.5671V27.7178C184.296 28.2444 183.935 28.7362 183.408 28.8162C183.318 28.8301 183.226 28.8306 183.136 28.8187Z" fill="white"/>
</svg>
