<svg width="251" height="47" viewBox="0 0 251 47" fill="none" xmlns="http://www.w3.org/2000/svg">
<g id="Layer_1" clip-path="url(#clip0_198_90)">
<path id="Vector" d="M25.0061 37.3577C19.3462 37.3577 13.6916 36.2351 8.39554 33.9899L7.45483 33.5897V12.8213L8.00575 12.5822C18.8005 7.87348 31.1857 7.87348 41.9856 12.5822L42.5365 12.8213V33.5897L42.3858 33.6572C36.8767 36.1259 30.9414 37.3629 25.0009 37.3629L25.0061 37.3577ZM7.95897 33.257L8.59304 33.5273C19.2631 38.0593 31.4403 37.9606 42.0376 33.2622V13.1487L41.7881 13.0396C31.1181 8.38801 18.8785 8.38801 8.21364 13.0396L7.96417 13.1487V33.257H7.95897Z" fill="url(#paint0_linear_198_90)"/>
<path id="Vector_2" d="M36.7571 17.3117C29.2574 13.5177 20.7391 13.5177 13.2394 17.3117L12.9587 17.452V31.4639L13.5097 31.7342C17.1581 33.5325 21.0405 34.4368 24.9229 34.4472V31.7914L22.4126 29.2759H26.5393V23.2002L31.4143 20.1546L37.0378 24.2969V17.452L36.7571 17.3117ZM18.7537 25.9028L15.1 23.2002L19.2215 20.1546L23.6704 23.2002L18.7537 25.9028Z" fill="url(#paint1_linear_198_90)"/>
<path id="Vector_3" d="M48.0456 37.4513C45.4626 40.7723 41.4918 42.7785 37.5679 44.1142C27.6566 47.2222 16.1706 46.8428 6.88828 41.9677C5.05884 40.9438 3.32294 39.7069 1.95605 38.1373C3.62438 39.3691 5.42784 40.3254 7.31446 41.0738C18.6134 45.6318 38.3371 45.4551 48.0508 37.4513H48.0456Z" fill="white"/>
<path id="Vector_4" d="M48.0456 12.4158C37.6458 3.62196 12.2571 3.88182 2.62648 13.7307L2.87595 13.1018L2.91753 18.3251C2.92272 21.641 2.95391 30.5647 2.9591 33.9949L2.63687 33.2569C4.05054 34.5666 5.73446 35.6217 7.52232 36.4844C16.524 40.6163 27.6047 40.9853 37.1313 38.4854C40.9513 37.3939 44.8129 35.7672 47.6402 32.9243L47.4895 33.3037C47.5207 31.5834 47.557 29.8579 47.5986 28.1272C47.7026 23.46 47.8897 17.0777 48.0456 12.4106V12.4158ZM48.0456 12.4158C48.2015 17.0569 48.3886 23.3976 48.4926 28.0388C48.5393 29.8631 48.5757 31.6873 48.6069 33.5168C45.6912 36.7651 41.6425 38.6621 37.5575 39.9406C26.5704 43.2877 10.2457 42.5964 1.26999 34.7277L0.947754 34.4315V33.9897C1.00492 27.8985 0.947754 18.7461 1.03611 12.7276C11.0617 2.11994 37.703 2.3902 48.0456 12.4158Z" fill="white"/>
<path id="Vector_5" d="M1.95605 9.28718C4.53911 5.96611 8.50984 3.95996 12.4338 2.62425C22.345 -0.483727 33.831 -0.104325 43.1134 4.77073C44.9428 5.7946 46.6787 7.03155 48.0456 8.60113C46.3773 7.36938 44.5738 6.41308 42.6872 5.66467C31.3883 1.10664 11.6646 1.27815 1.95605 9.28718Z" fill="white"/>
<path id="Vector_6" d="M76.6462 18.0654H71.979L67.4989 22.6547V11.4077L63.5542 13.2528V34.1822H67.4989V27.0879L69.0893 25.508L73.6162 34.1822H77.9091L71.979 22.7014L76.6462 18.0654Z" fill="white"/>
<path id="Vector_7" d="M96.9522 15.3886C96.1986 14.2816 95.2111 13.3929 93.9846 12.7224C92.758 12.052 91.2612 11.7194 89.4993 11.7194C87.7374 11.7194 86.2354 12.052 85.0036 12.7224C83.7719 13.3929 82.7844 14.2764 82.0308 15.3886C81.2772 16.5009 80.7315 17.7274 80.3833 19.0735C80.035 20.4196 79.8635 21.7761 79.8635 23.143C79.8635 24.5099 80.035 25.8664 80.3833 27.2125C80.7315 28.5586 81.2772 29.7851 82.0308 30.8974C82.7844 32.0096 83.7719 32.8931 85.0036 33.5636C86.2354 34.2288 87.7322 34.5666 89.4993 34.5666C91.2664 34.5666 92.7632 34.234 93.9846 33.5636C95.2111 32.8983 96.1986 32.0096 96.9522 30.8974C97.7058 29.7903 98.2515 28.5586 98.5946 27.2125C98.9376 25.8664 99.1091 24.5099 99.1091 23.143C99.1091 21.7761 98.9376 20.4196 98.5946 19.0735C98.2515 17.7274 97.7058 16.5009 96.9522 15.3886ZM84.38 20.5807C84.5619 19.7024 84.8633 18.8864 85.2791 18.138C85.6949 17.3844 86.2458 16.7763 86.937 16.3138C87.6231 15.8512 88.4806 15.6173 89.4993 15.6173C90.518 15.6173 91.3599 15.8408 92.046 16.2878C92.2539 16.4229 92.441 16.5736 92.6229 16.7295L84.7386 27.0202C84.5879 26.6252 84.4683 26.2094 84.38 25.7728C84.1981 24.8893 84.1045 24.0109 84.1045 23.1378C84.1045 22.2647 84.1981 21.4539 84.38 20.5755V20.5807ZM94.5926 25.6897C94.4055 26.568 94.0989 27.3788 93.6779 28.1272C93.2569 28.8756 92.7008 29.4785 92.0148 29.9411C91.3236 30.4036 90.4868 30.6323 89.4993 30.6323C88.5118 30.6323 87.6543 30.414 86.9682 29.9722C86.7136 29.8059 86.4797 29.6188 86.2614 29.4109L94.1821 19.0735C94.3588 19.5205 94.4991 19.9882 94.603 20.4872C94.7849 21.3759 94.8785 22.2595 94.8785 23.143C94.8785 23.9642 94.7849 24.8113 94.5926 25.6897Z" fill="white"/>
<path id="Vector_8" d="M116.229 23.0184C115.517 22.4831 114.732 22.0257 113.864 21.6567C112.996 21.2825 112.128 20.9499 111.255 20.6536C110.475 20.3782 109.779 20.1131 109.166 19.848C108.552 19.583 108.064 19.2867 107.7 18.9593C107.336 18.6319 107.154 18.2265 107.154 17.7535C107.154 17.0571 107.424 16.5218 107.96 16.1424C108.495 15.763 109.249 15.5759 110.215 15.5759C111.244 15.5759 112.066 15.7994 112.669 16.2463C113.271 16.6933 113.724 17.2494 114.02 17.9095L117.679 16.6933C117.424 15.7474 116.972 14.9002 116.322 14.1518C115.673 13.4034 114.846 12.8161 113.853 12.3795C112.861 11.943 111.723 11.7247 110.439 11.7247C108.869 11.7247 107.539 11.9949 106.442 12.5355C105.34 13.076 104.504 13.7984 103.927 14.7027C103.35 15.6071 103.059 16.5997 103.059 17.686C103.059 18.7722 103.267 19.6817 103.682 20.4301C104.098 21.1786 104.649 21.7918 105.33 22.2856C106.011 22.7741 106.764 23.1847 107.586 23.5225C108.407 23.8604 109.223 24.1618 110.028 24.4373C110.87 24.7231 111.624 25.0142 112.294 25.3104C112.96 25.6118 113.495 25.9653 113.885 26.381C114.28 26.7968 114.477 27.3166 114.477 27.935C114.477 28.8394 114.145 29.5306 113.474 30.0035C112.809 30.4765 111.91 30.7156 110.787 30.7156C109.727 30.7156 108.771 30.3933 107.923 29.7437C107.076 29.0992 106.416 28.2677 105.943 27.2594L102.238 28.6315C102.638 29.8424 103.241 30.8871 104.046 31.7758C104.852 32.6646 105.813 33.3506 106.941 33.834C108.064 34.3173 109.316 34.5616 110.694 34.5616C112.185 34.5616 113.526 34.3017 114.716 33.782C115.906 33.2623 116.847 32.5086 117.549 31.5212C118.25 30.5337 118.599 29.3331 118.599 27.9246C118.599 26.7812 118.38 25.8093 117.949 25.0142C117.518 24.219 116.946 23.5537 116.239 23.0184H116.229Z" fill="white"/>
<path id="Vector_9" d="M133.598 24.6242C133.505 24.8425 133.416 25.0712 133.328 25.2999C133.245 25.5285 133.162 25.7676 133.073 26.0119C132.99 25.7728 132.902 25.5337 132.813 25.3103C132.725 25.0816 132.626 24.8581 132.522 24.6242L126.925 12.0987H122.84V34.182H126.925V22.2906C126.925 22.1139 126.925 21.906 126.915 21.6774C126.915 21.4487 126.899 21.246 126.894 21.0797C126.956 21.2928 127.029 21.5006 127.117 21.7085C127.2 21.9164 127.278 22.1035 127.351 22.2594L132.995 34.5614L138.577 22.2594C138.66 22.0827 138.749 21.8852 138.837 21.667C138.925 21.4539 139.003 21.2512 139.066 21.0589C139.066 21.2044 139.066 21.3967 139.055 21.6254C139.05 21.8593 139.045 22.0671 139.045 22.2543V34.1768H143.13V12.1039H139.3L133.588 24.6294L133.598 24.6242Z" fill="white"/>
<path id="Vector_10" d="M164.506 15.3886C163.753 14.2816 162.765 13.3929 161.539 12.7224C160.312 12.052 158.815 11.7194 157.053 11.7194C155.292 11.7194 153.79 12.052 152.558 12.7224C151.326 13.3929 150.339 14.2764 149.585 15.3886C148.831 16.5009 148.286 17.7274 147.937 19.0735C147.589 20.4196 147.418 21.7761 147.418 23.143C147.418 24.5099 147.589 25.8664 147.937 27.2125C148.286 28.5586 148.837 29.7851 149.585 30.8974C150.339 32.0096 151.326 32.8931 152.558 33.5636C153.79 34.2288 155.286 34.5666 157.053 34.5666C158.821 34.5666 160.317 34.234 161.539 33.5636C162.765 32.8983 163.753 32.0096 164.506 30.8974C165.26 29.7903 165.806 28.5586 166.149 27.2125C166.492 25.8664 166.663 24.5099 166.663 23.143C166.663 21.7761 166.492 20.4196 166.149 19.0735C165.806 17.7274 165.26 16.5009 164.506 15.3886ZM162.152 25.6897C161.965 26.568 161.658 27.3788 161.237 28.1272C160.816 28.8756 160.26 29.4785 159.574 29.9411C158.883 30.4036 158.046 30.6323 157.059 30.6323C156.071 30.6323 155.214 30.414 154.528 29.9722C153.836 29.5305 153.28 28.9432 152.854 28.2052C152.428 27.4671 152.121 26.6616 151.939 25.778C151.757 24.8945 151.664 24.0161 151.664 23.143C151.664 22.2699 151.757 21.4591 151.939 20.5807C152.121 19.7024 152.423 18.8864 152.838 18.138C153.254 17.3844 153.805 16.7763 154.496 16.3138C155.188 15.8512 156.04 15.6173 157.059 15.6173C158.077 15.6173 158.919 15.8408 159.605 16.2878C160.297 16.7347 160.848 17.322 161.263 18.0549C161.679 18.7877 161.975 19.5932 162.162 20.482C162.344 21.3707 162.438 22.2543 162.438 23.1378C162.438 23.959 162.344 24.8061 162.152 25.6845V25.6897Z" fill="white"/>
<path id="Vector_11" d="M168.758 16.028H175.021V34.1822H179.106V16.028H185.4V12.1041H168.758V16.028Z" fill="white"/>
<path id="Vector_12" d="M206.022 21.4539C206.345 20.6015 206.506 19.7596 206.506 18.928C206.506 17.7274 206.277 16.61 205.82 15.5705C205.362 14.5311 204.598 13.6891 203.533 13.055C202.467 12.421 201.012 12.0987 199.172 12.0987H189.126V34.182H193.211V25.8248H197.691L201.87 34.182H206.459L202.104 25.2687C203.091 24.9412 203.912 24.4371 204.562 23.7563C205.212 23.0754 205.7 22.3062 206.022 21.4539ZM202.005 20.4144C201.818 20.877 201.496 21.2512 201.049 21.5422C200.602 21.8333 199.994 21.9736 199.224 21.9736H193.201V15.9499H199.224C200.025 15.9499 200.643 16.1007 201.085 16.4073C201.527 16.7139 201.839 17.0985 202.015 17.5611C202.192 18.0237 202.286 18.4862 202.286 18.9488C202.286 19.4633 202.192 19.9519 202 20.4144H202.005Z" fill="white"/>
<path id="Vector_13" d="M227.108 15.3886C226.354 14.2816 225.367 13.3929 224.14 12.7224C222.914 12.052 221.422 11.7194 219.655 11.7194C217.888 11.7194 216.391 12.052 215.159 12.7224C213.928 13.3929 212.94 14.2764 212.187 15.3886C211.433 16.5009 210.887 17.7274 210.539 19.0735C210.191 20.4196 210.019 21.7761 210.019 23.143C210.019 24.5099 210.191 25.8664 210.539 27.2125C210.887 28.5586 211.433 29.7851 212.187 30.8974C212.94 32.0096 213.928 32.8931 215.159 33.5636C216.391 34.2288 217.888 34.5666 219.655 34.5666C221.422 34.5666 222.919 34.234 224.14 33.5636C225.367 32.8983 226.354 32.0096 227.108 30.8974C227.862 29.7903 228.407 28.5586 228.75 27.2125C229.093 25.8664 229.265 24.5099 229.265 23.143C229.265 21.7761 229.093 20.4196 228.75 19.0735C228.407 17.7274 227.862 16.5009 227.108 15.3886ZM224.754 25.6897C224.567 26.568 224.26 27.3788 223.839 28.1272C223.418 28.8756 222.862 29.4785 222.176 29.9411C221.485 30.4036 220.648 30.6323 219.66 30.6323C218.673 30.6323 217.815 30.414 217.129 29.9722C216.438 29.5305 215.882 28.9432 215.456 28.2052C215.029 27.4671 214.723 26.6616 214.541 25.778C214.359 24.8945 214.265 24.0161 214.265 23.143C214.265 22.2699 214.359 21.4591 214.541 20.5807C214.723 19.7024 215.024 18.8864 215.44 18.138C215.856 17.3844 216.407 16.7763 217.098 16.3138C217.789 15.8512 218.642 15.6173 219.66 15.6173C220.679 15.6173 221.521 15.8408 222.207 16.2878C222.898 16.7347 223.449 17.322 223.865 18.0549C224.281 18.7877 224.582 19.5932 224.764 20.482C224.946 21.3707 225.039 22.2543 225.039 23.1378C225.039 23.959 224.946 24.8061 224.754 25.6845V25.6897Z" fill="white"/>
<path id="Vector_14" d="M246.878 12.1041V25.1025C246.878 25.3 246.889 25.5703 246.904 25.8977C246.92 26.2303 246.946 26.511 246.977 26.7396C246.852 26.4746 246.696 26.1835 246.509 25.8665C246.327 25.5443 246.177 25.2896 246.062 25.1025L237.357 12.1041H233.542V34.1874H237.596V21.0954C237.596 20.8719 237.596 20.612 237.58 20.3054C237.57 19.9988 237.549 19.7181 237.518 19.453C237.643 19.7181 237.799 20.0092 237.986 20.3366C238.168 20.664 238.318 20.9135 238.433 21.0954L247.315 34.1874H250.958V12.1041H246.889H246.878Z" fill="white"/>
</g>
<defs>
<linearGradient id="paint0_linear_198_90" x1="7.46003" y1="23.2055" x2="42.5417" y2="23.2055" gradientUnits="userSpaceOnUse">
<stop stop-color="#1DA7FD"/>
<stop offset="1" stop-color="#08F5DA"/>
</linearGradient>
<linearGradient id="paint1_linear_198_90" x1="25.0009" y1="15.2692" x2="25.0009" y2="41.5207" gradientUnits="userSpaceOnUse">
<stop stop-color="#1DA7FD"/>
<stop offset="1" stop-color="#08F5DA"/>
</linearGradient>
<clipPath id="clip0_198_90">
<rect width="250" height="45.4815" fill="white" transform="translate(0.947998 0.628422)"/>
</clipPath>
</defs>
</svg>
