<svg width="404" height="60" viewBox="0 0 404 60" fill="none" xmlns="http://www.w3.org/2000/svg">
<path d="M3.12315 58.8989C2.05415 59.0519 1.06215 58.3099 0.909148 57.2409C0.883148 57.0559 0.883148 56.8689 0.909148 56.6849V3.13892C0.767148 2.07792 1.51315 1.10292 2.57415 0.96192C2.75615 0.93692 2.94115 0.93892 3.12315 0.96692C4.17315 0.81692 5.14515 1.54692 5.29515 2.59592C5.32115 2.77592 5.32115 2.95892 5.29515 3.13892V37.8479L26.5091 19.6369C27.2001 18.8379 28.4071 18.7509 29.2061 19.4419C29.3421 19.5599 29.4601 19.6959 29.5581 19.8459C30.3671 20.5589 30.4451 21.7929 29.7321 22.6019C29.6201 22.7299 29.4911 22.8429 29.3491 22.9369L13.9821 36.1769L30.6891 55.1399C31.5001 55.8249 31.6031 57.0369 30.9181 57.8479C30.7921 57.9969 30.6451 58.1259 30.4801 58.2309C29.7881 59.0289 28.5801 59.1159 27.7821 58.4239C27.6461 58.3069 27.5281 58.1719 27.4311 58.0219L10.5991 39.0589L5.29915 43.6119V56.6849C5.46115 57.7429 4.73415 58.7319 3.67615 58.8939C3.49415 58.9219 3.30915 58.9229 3.12715 58.8989" fill="white"/>
<path d="M63.8121 31.4119V33.0009C63.8121 34.6509 63.0171 35.4659 61.4281 35.4659H59.8751C58.6961 35.6239 57.6121 34.7959 57.4551 33.6159C57.4271 33.4119 57.4291 33.2049 57.4611 33.0009V31.4119C57.3071 30.2519 58.1211 29.1869 59.2811 29.0329C59.4781 29.0069 59.6781 29.0079 59.8751 29.0379H61.4231C62.5701 28.8669 63.6391 29.6579 63.8101 30.8049C63.8401 31.0059 63.8411 31.2109 63.8121 31.4119Z" fill="white"/>
<path d="M76.3581 9.46691C73.5891 6.69591 69.1811 5.31091 63.1351 5.31091H58.1231C52.1101 5.27991 47.7061 6.64491 44.9101 9.40591C42.1061 12.1569 40.7041 16.5539 40.7041 22.5989V41.6459C40.7041 47.6869 42.1001 52.1019 44.8911 54.8889C47.6721 57.6699 52.0831 59.0629 58.1241 59.0659H63.1361C69.1771 59.0659 73.5851 57.6739 76.3591 54.8889C79.1331 52.1039 80.5181 47.6899 80.5151 41.6459V22.6799C80.5151 16.6389 79.1291 12.2339 76.3581 9.46691ZM76.1241 41.6459C76.2271 44.2579 75.8011 46.8639 74.8711 49.3069C74.0901 51.1589 72.6201 52.6349 70.7711 53.4229C68.3361 54.3539 65.7361 54.7809 63.1311 54.6759H58.1231C55.5041 54.7819 52.8911 54.3559 50.4421 53.4229C48.5931 52.6349 47.1231 51.1589 46.3421 49.3069C45.4141 46.8629 44.9901 44.2579 45.0941 41.6459V22.5989C44.9901 19.9939 45.4161 17.3949 46.3471 14.9589C47.1341 13.1149 48.6111 11.6529 50.4631 10.8839C52.9111 9.97791 55.5161 9.57291 58.1241 9.69191H63.1361C65.7411 9.58791 68.3411 10.0139 70.7761 10.9459C72.6221 11.7299 74.0921 13.1999 74.8761 15.0459C75.8071 17.4819 76.2331 20.0809 76.1291 22.6859L76.1241 41.6459Z" fill="#32DCE0"/>
<path d="M63.8121 31.4119V33.0009C63.8121 34.6509 63.0171 35.4659 61.4281 35.4659H59.8751C58.6961 35.6239 57.6121 34.7959 57.4551 33.6159C57.4271 33.4119 57.4291 33.2049 57.4611 33.0009V31.4119C57.3071 30.2519 58.1211 29.1869 59.2811 29.0329C59.4781 29.0069 59.6781 29.0079 59.8751 29.0379H61.4231C62.5701 28.8669 63.6391 29.6579 63.8101 30.8049C63.8401 31.0059 63.8411 31.2109 63.8121 31.4119Z" fill="white"/>
<path d="M63.8121 31.4119V33.0009C63.8121 34.6509 63.0171 35.4659 61.4281 35.4659H59.8751C58.6961 35.6239 57.6121 34.7959 57.4551 33.6159C57.4271 33.4119 57.4291 33.2049 57.4611 33.0009V31.4119C57.3071 30.2519 58.1211 29.1869 59.2811 29.0329C59.4781 29.0069 59.6781 29.0079 59.8751 29.0379H61.4231C62.5701 28.8669 63.6391 29.6579 63.8101 30.8049C63.8401 31.0059 63.8411 31.2109 63.8121 31.4119Z" fill="white"/>
<path d="M102.565 58.8149C99.1397 58.8149 96.5227 58.0839 94.7127 56.6229C92.7767 54.9129 91.6037 52.5009 91.4547 49.9229C91.3367 49.3179 91.5067 48.6929 91.9137 48.2309C92.3757 47.8009 92.9957 47.5819 93.6257 47.6259C94.2007 47.5819 94.7677 47.7789 95.1927 48.1689C95.5837 48.6289 95.8247 49.1969 95.8817 49.7979C95.9647 51.2199 96.6577 52.5359 97.7817 53.4099C99.2457 54.1989 100.905 54.5549 102.564 54.4339H116.264C118.853 54.4339 120.635 53.9469 121.61 52.9719C122.585 51.9969 123.072 50.2149 123.072 47.6259C123.072 45.0089 122.585 43.2129 121.61 42.2379C120.635 41.2629 118.853 40.7759 116.264 40.7759H102.736C99.1167 40.7759 96.4217 39.9059 94.6527 38.1659C92.8837 36.4259 91.9997 33.7459 92.0007 30.1249C92.0007 26.4219 92.8777 23.6999 94.6317 21.9589C96.3857 20.2179 99.0857 19.3479 102.732 19.3489H115.847C122.14 19.3489 125.634 22.1339 126.331 27.7029C126.475 28.3039 126.311 28.9379 125.893 29.3939C125.435 29.8189 124.824 30.0369 124.201 29.9999C123.626 30.0439 123.059 29.8469 122.635 29.4569C122.245 29.0089 121.991 28.4579 121.904 27.8699C121.861 26.5899 121.239 25.3979 120.213 24.6319C118.868 23.9389 117.358 23.6269 115.848 23.7319H102.736C100.313 23.7319 98.6497 24.1779 97.7447 25.0689C96.8397 25.9599 96.3877 27.6449 96.3867 30.1229C96.3867 32.4899 96.8457 34.1249 97.7647 35.0299C98.6837 35.9349 100.34 36.3869 102.735 36.3879H116.268C120.111 36.3879 122.937 37.2999 124.747 39.1239C126.557 40.9479 127.462 43.7809 127.462 47.6239C127.462 51.4389 126.557 54.2579 124.747 56.0809C122.937 57.9039 120.111 58.8159 116.268 58.8169L102.565 58.8149Z" fill="white"/>
<path d="M183.804 19.3439C188.287 19.3439 191.496 20.4859 193.432 22.7689C195.368 25.0519 196.335 28.8259 196.332 34.0889V56.7679C196.332 57.9789 195.35 58.9609 194.139 58.9609C192.928 58.9609 191.946 57.9789 191.946 56.7679V34.0889C191.946 30.4119 191.319 27.7669 190.066 26.1529C188.813 24.5389 186.724 23.7309 183.801 23.7289H180.339C176.691 23.7289 174.081 24.5369 172.508 26.1529C170.935 27.7689 170.149 30.4139 170.148 34.0889V56.7679C170.148 57.9789 169.166 58.9609 167.955 58.9609C166.744 58.9609 165.762 57.9789 165.762 56.7679V34.0889C165.762 30.4119 165.135 27.7669 163.882 26.1529C162.629 24.5389 160.54 23.7309 157.617 23.7289H154.149C150.501 23.7289 147.891 24.5369 146.318 26.1529C144.745 27.7689 143.959 30.4139 143.958 34.0889V56.7679C143.958 57.9789 142.976 58.9609 141.765 58.9609C140.554 58.9609 139.572 57.9789 139.572 56.7679V21.6039C139.572 20.3929 140.554 19.4109 141.765 19.4109C142.976 19.4109 143.958 20.3929 143.958 21.6039V24.8619C144.99 23.0709 146.501 21.6029 148.322 20.6229C150.331 19.7049 152.527 19.2689 154.734 19.3489H157.616C160.055 19.2379 162.48 19.7639 164.654 20.8739C166.554 22.0429 168.027 23.7929 168.854 25.8649C169.849 23.8039 171.415 22.0719 173.365 20.8739C175.518 19.7699 177.921 19.2419 180.339 19.3439H183.804Z" fill="white"/>
<path d="M224.155 58.8989C218.947 58.8989 215.132 57.6949 212.711 55.2859C210.29 52.8769 209.078 49.0839 209.077 43.9059V34.4629C209.077 29.1999 210.288 25.3649 212.711 22.9559C215.134 20.5469 218.948 19.3709 224.155 19.4269H231.004C236.212 19.4269 240.02 20.6309 242.428 23.0399C244.836 25.4489 246.04 29.2559 246.041 34.4619V43.8189C246.041 49.0259 244.837 52.8399 242.428 55.2619C240.019 57.6839 236.211 58.8959 231.004 58.8969L224.155 58.8989ZM213.463 43.9059C213.463 47.8319 214.249 50.5819 215.822 52.1559C217.395 53.7299 220.172 54.5159 224.155 54.5149H231.004C234.986 54.5149 237.757 53.7289 239.316 52.1559C240.875 50.5829 241.655 47.8059 241.655 43.8229V34.4629C241.655 30.4819 240.875 27.7109 239.316 26.1519C237.757 24.5929 234.986 23.8129 231.004 23.8119H224.155C221.995 23.7009 219.836 24.0279 217.806 24.7739C216.292 25.3979 215.089 26.6009 214.465 28.1149C213.718 30.1449 213.378 32.3019 213.465 34.4629L213.463 43.9059Z" fill="white"/>
<path d="M274.986 58.8999C269.863 58.8999 266.117 57.7169 263.75 55.3499C261.383 52.9829 260.199 49.2519 260.2 44.1559V23.8129H255.23C254.161 23.9659 253.169 23.2239 253.016 22.1549C252.99 21.9699 252.99 21.7829 253.016 21.5989C252.874 20.5379 253.62 19.5629 254.681 19.4219C254.863 19.3969 255.048 19.3989 255.23 19.4269H260.2V10.4479C260.2 9.23691 261.182 8.25491 262.393 8.25491C263.604 8.25491 264.586 9.23691 264.586 10.4479V19.4279H275.07C276.12 19.2779 277.093 20.0069 277.243 21.0559C277.269 21.2369 277.269 21.4199 277.243 21.5999C277.405 22.6579 276.678 23.6469 275.62 23.8089C275.438 23.8369 275.253 23.8379 275.071 23.8139H264.586V44.1539C264.586 48.0529 265.345 50.7529 266.862 52.2539C268.379 53.7549 271.087 54.5069 274.986 54.5089C275.613 54.4479 276.239 54.6439 276.719 55.0519C277.099 55.5059 277.287 56.0909 277.242 56.6809C277.386 57.7619 276.627 58.7559 275.546 58.8999C275.36 58.9249 275.172 58.9229 274.987 58.8949" fill="white"/>
<path d="M291.024 58.8989C289.955 59.0519 288.963 58.3099 288.81 57.2409C288.784 57.0559 288.784 56.8689 288.81 56.6849V21.5999C288.813 20.3889 289.797 19.4089 291.009 19.4129C292.215 19.4159 293.193 20.3929 293.196 21.5999V28.0319C294.586 25.3069 296.781 23.0759 299.483 21.6419C302.498 20.1019 305.851 19.3409 309.235 19.4279C310.294 19.2669 311.283 19.9939 311.444 21.0529C311.471 21.2339 311.473 21.4179 311.449 21.5999C311.602 22.6699 310.858 23.6609 309.788 23.8139C309.605 23.8399 309.419 23.8399 309.235 23.8139C304.279 23.8139 300.436 24.9349 297.707 27.1759C294.978 29.4169 293.474 32.6129 293.196 36.7619V56.6849C293.358 57.7429 292.631 58.7319 291.573 58.8939C291.391 58.9219 291.206 58.9229 291.024 58.8989Z" fill="white"/>
<path d="M332.584 58.8989C327.377 58.8989 323.563 57.6949 321.14 55.2859C318.717 52.8769 317.506 49.0839 317.506 43.9059V34.4629C317.506 29.1999 318.717 25.3649 321.14 22.9559C323.563 20.5469 327.377 19.3709 332.584 19.4269H339.434C344.641 19.4269 348.449 20.6309 350.858 23.0399C353.267 25.4489 354.471 29.2559 354.47 34.4619V43.8189C354.47 49.0259 353.266 52.8399 350.858 55.2619C348.45 57.6839 344.642 58.8959 339.434 58.8969L332.584 58.8989ZM321.892 43.9059C321.892 47.8319 322.678 50.5819 324.251 52.1559C325.824 53.7299 328.601 54.5159 332.584 54.5149H339.434C343.416 54.5149 346.187 53.7289 347.746 52.1559C349.305 50.5829 350.085 47.8059 350.085 43.8229V34.4629C350.085 30.4819 349.305 27.7109 347.746 26.1519C346.187 24.5929 343.416 23.8129 339.434 23.8119H332.584C330.424 23.7009 328.265 24.0279 326.235 24.7739C324.721 25.3979 323.518 26.6009 322.894 28.1149C322.147 30.1449 321.807 32.3019 321.894 34.4629L321.892 43.9059Z" fill="white"/>
<path d="M369.175 58.8989C368.105 59.0519 367.114 58.3079 366.961 57.2379C366.935 57.0549 366.935 56.8679 366.961 56.6849V21.5999C366.961 20.3889 367.943 19.4069 369.154 19.4069C370.366 19.4069 371.348 20.3889 371.348 21.5999V25.6059C373.993 21.4849 378.782 19.4249 385.715 19.4239H388.054C393.262 19.4239 397.07 20.6279 399.478 23.0369C401.886 25.4459 403.09 29.2529 403.09 34.4599V56.6799C403.093 57.8909 402.114 58.8749 400.903 58.8789C399.691 58.8819 398.707 57.9019 398.704 56.6909V56.6799V34.4639C398.704 30.4819 397.918 27.7109 396.345 26.1519C394.772 24.5929 392.009 23.8129 388.054 23.8129H385.715C381.398 23.8129 378.001 24.4949 375.524 25.8599C373.115 27.1179 371.533 29.5379 371.348 32.2499V56.6849C371.509 57.7439 370.782 58.7329 369.723 58.8939C369.542 58.9219 369.357 58.9229 369.175 58.8989Z" fill="white"/>
</svg>
